<svg width="408" height="171" viewBox="0 0 408 171" fill="none" xmlns="http://www.w3.org/2000/svg">
<g clip-path="url(#clip0_1_7382)">
<path d="M268.189 39.8125C266.022 39.8125 265.289 40.1694 264.729 42.2877C264.252 44.0841 264.095 45.7869 264.834 47.5365C266.651 51.8373 270.25 48.145 271.048 45.1842C271.38 43.9437 271.835 39.9237 268.195 39.8184L268.189 39.8125Z" stroke="white" stroke-width="1.13736" stroke-linecap="round" stroke-linejoin="round"/>
<path d="M268.483 43.2949C268.483 44.1258 268.611 45.2493 268.337 45.9047" stroke="white" stroke-width="1.13736" stroke-linecap="round" stroke-linejoin="round"/>
<path d="M269.631 39.8066C269.59 39.0752 267.168 38.3964 266.463 38.3496C265.001 38.2501 264.751 39.005 264.04 40.1285C263.504 40.9711 262.573 41.9775 262.59 42.9664C262.602 43.5984 263.388 45.0379 263.714 45.6113" stroke="white" stroke-width="1.13736" stroke-linecap="round" stroke-linejoin="round"/>
<path d="M269.634 39.8061C270.298 39.7534 270.822 40.1923 271.329 40.5726C272.249 41.269 272.004 41.2924 272.231 42.1993C272.482 43.1941 273.745 45.9267 271.806 45.6108" stroke="white" stroke-width="1.13736" stroke-linecap="round" stroke-linejoin="round"/>
<path d="M265.446 49.3799C264.828 50.0938 263.996 50.7082 263.582 51.5274C265.644 51.5683 266.278 55.5474 268.451 55.0149C268.934 53.6515 271.409 53.1131 271.619 51.6737C271.741 50.8311 270.448 48.6953 270.064 47.9346" stroke="white" stroke-width="1.13736" stroke-linecap="round" stroke-linejoin="round"/>
<path d="M270.36 48.2234C271.967 48.2234 273.406 48.3989 274.803 47.6031C275.578 47.1643 276.97 45.5902 277.902 45.6429C278.909 45.7073 279.369 47.4276 280.074 48.1824C280.715 48.8729 281.769 49.3586 282.625 49.7038C280.243 51.8806 278.216 53.1211 278.047 56.632C277.878 60.1429 278.012 63.841 278.012 67.4397C278.012 68.3818 278.239 69.6516 278.012 70.5585C277.68 71.8985 276.999 71.6996 275.52 71.8576C272.788 72.1501 269.917 72.039 267.145 72.0039C264.116 71.9687 261.962 70.424 258.98 71.2666C258.828 69.0372 259.178 66.9774 259.516 64.8241C259.743 63.3905 259.848 61.3717 259.061 60.1078C258.432 59.0955 257.227 57.7145 256.423 56.7724C255.142 55.2686 255.346 55.0521 256.312 53.1504C256.924 51.9567 257.669 48.8027 259.353 48.9665C259.871 49.8794 261.839 50.8566 262.841 51.114" stroke="white" stroke-width="1.13736" stroke-linecap="round" stroke-linejoin="round"/>
<path d="M278.438 45.1788C278.875 43.9617 280.232 42.8382 281.112 41.9137C282.544 40.404 283.971 38.7188 284.979 36.9048C285.631 35.7286 286.149 34.5349 286.819 33.3588C287.564 32.0481 287.477 31.0065 287.862 29.6607C288.077 28.9117 288.199 28.5372 289.055 28.5021C290.075 28.4552 290.284 29.2218 289.271 29.3739" stroke="white" stroke-width="1.13736" stroke-linecap="round" stroke-linejoin="round"/>
<path d="M281.471 48.5095C281.349 46.9062 283.748 44.5422 284.657 43.2899C285.857 41.6281 287.021 39.8376 288.116 38.0587C289.037 36.5607 289.596 34.9633 290.458 33.4185C291.151 32.1838 292.828 30.8672 293.049 29.5038C293.375 27.4968 291.36 26.976 289.724 27.0579C289.619 27.4324 289.433 27.8361 289.409 28.1989" stroke="white" stroke-width="1.13736" stroke-linecap="round" stroke-linejoin="round"/>
<path d="M257.51 49.6755C255.058 49.0142 252.14 46.2348 250.58 44.2745C249.339 42.7122 248.174 41.103 246.969 39.5231C246.41 38.7975 245.216 37.1299 245.233 36.1995C245.257 35.0643 246.584 33.6307 244.255 34.0403C244.267 34.2685 244.371 34.4148 244.523 34.5962" stroke="white" stroke-width="1.13736" stroke-linecap="round" stroke-linejoin="round"/>
<path d="M255.777 52.865C252.143 49.9568 249.068 46.7502 245.824 43.4383C244.665 42.2563 243.518 40.9689 242.347 39.7752C240.845 38.2363 241.089 36.633 241.736 34.7254C242.108 33.637 244.327 30.565 244.368 33.5668" stroke="white" stroke-width="1.13736" stroke-linecap="round" stroke-linejoin="round"/>
<path d="M260.4 71.6992C260.656 73.8467 258.245 76.357 257.115 78.0364C255.909 79.8328 254.314 81.5005 253.522 83.5251C251.914 87.6153 252.928 92.3316 253.941 96.4452C254.349 98.1011 254.314 99.6459 254.401 101.372C256.09 101.448 257.744 100.998 259.031 99.8273C260.499 98.4932 260.825 97.5218 260.382 95.6728C259.94 93.8237 259.421 90.7107 259.986 88.8792C260.697 86.5913 262.91 84.5491 263.917 82.2787C264.75 80.4062 265.554 79.1423 266.823 77.6034" stroke="white" stroke-width="1.13736" stroke-linecap="round" stroke-linejoin="round"/>
<path d="M255.335 86.0006C255.847 86.024 256.366 85.8836 256.838 85.7256" stroke="white" stroke-width="1.13736" stroke-linecap="round" stroke-linejoin="round"/>
<path d="M255.198 101.81C254.307 102.22 252.385 103.291 252.484 104.402C253.637 104.49 254.488 104.9 255.681 104.713C256.747 104.549 257.854 104.262 258.896 104.005C261.546 103.343 260.696 101.763 259.31 100.16" stroke="white" stroke-width="1.13736" stroke-linecap="round" stroke-linejoin="round"/>
<path d="M267.24 77.6139C269.378 77.7192 270.373 80.2353 271.503 81.6221C272.697 83.0909 275.464 84.8346 275.726 86.8182C275.906 88.1758 274.747 90.2414 274.258 91.4585C273.693 92.8628 272.994 94.1209 272.196 95.3439C271.614 96.2391 270.339 97.6084 270.542 98.7611C272.587 98.4627 274.934 98.3281 276.815 97.2398C278.556 96.2333 279.802 94.2204 281.142 92.8043C282.481 91.3883 284.636 89.5509 284.217 87.1986C283.541 83.4185 280.35 80.9375 278.294 78.0176C277.019 76.2036 276.564 74.0327 275.318 72.2422" stroke="white" stroke-width="1.13736" stroke-linecap="round" stroke-linejoin="round"/>
<path d="M274.766 98.5098C275.559 99.8205 278.995 102.664 276.409 103.32C274.58 103.782 271.249 103.46 269.979 102.05C268.989 100.95 269.968 100.002 270.521 98.9194" stroke="white" stroke-width="1.13736" stroke-linecap="round" stroke-linejoin="round"/>
<path d="M280.792 87.233C281.229 87.3442 281.636 87.2623 281.887 86.958" stroke="white" stroke-width="1.13736" stroke-linecap="round" stroke-linejoin="round"/>
<path d="M369.404 53.6572C369.404 54.6695 369.392 55.6818 369.404 56.6942C369.404 57.291 369.084 57.9639 368.775 58.473C368.711 58.5842 368.641 58.6895 368.577 58.7948C368.53 58.8709 368.507 58.9762 368.455 59.0465C368.408 59.1167 368.338 59.1342 368.286 59.1986C368.146 59.3975 367.913 59.8364 368.041 60.0822C368.128 60.2577 368.49 60.4391 368.658 60.5269C368.897 60.6556 369.165 60.8136 369.287 61.0769C369.41 61.3402 369.503 61.6153 369.59 61.8903C369.701 62.2297 369.724 62.6042 369.835 62.9494C369.928 63.2361 369.951 63.5462 370.109 63.8154C370.266 64.0846 370.406 64.2952 370.609 64.5234C371 64.9565 371.413 65.1671 372.013 65.1613C372.194 65.1613 372.327 65.2373 372.502 65.2432C372.636 65.249 372.782 65.2139 372.91 65.2373C373.061 65.2666 373.154 65.3251 373.318 65.3251C373.527 65.3251 373.679 65.4129 373.888 65.407C374.226 65.4012 374.517 65.6118 374.779 65.8108C375.071 66.0273 375.35 66.2613 375.647 66.4661C375.898 66.6358 376.171 66.7646 376.416 66.9343C376.631 67.0864 376.818 67.3205 376.981 67.5253" stroke="white" stroke-width="1.13736" stroke-linecap="round" stroke-linejoin="round"/>
<path d="M368.511 53.084C369.326 53.084 370.141 53.084 370.957 53.084H372.413C372.884 53.084 373.403 53.0196 373.857 53.1425C374.259 53.2478 374.631 53.3765 374.993 53.5755C375.202 53.6925 375.4 53.7335 375.587 53.8973C375.75 54.0378 375.86 54.2016 375.988 54.3713C376.198 54.6405 376.443 54.8628 376.641 55.1437C376.85 55.4421 377.048 55.7347 377.276 56.0273C377.462 56.273 377.584 56.5071 377.823 56.7119C377.992 56.8523 378.149 56.9577 378.347 57.0454C378.568 57.1449 378.842 57.2795 379.081 57.3322C379.355 57.3965 379.652 57.4726 379.896 57.6364C380.257 57.8763 380.502 58.3035 380.787 58.6136C381.154 59.0115 381.737 59.2163 382.185 59.5089C382.278 59.5733 382.453 59.6728 382.581 59.6142C382.68 59.5733 382.698 59.4328 382.738 59.3275C382.896 58.9238 382.983 58.4849 383.059 58.0577C383.088 57.8705 383.047 57.6774 383.059 57.4901C383.076 57.2034 383.146 56.9635 383.146 56.6709C383.146 56.0448 383.146 55.4187 383.146 54.7926V52.6744C383.146 52.4637 383.158 52.2472 383.146 52.0366C383.14 51.861 383.088 51.703 383.064 51.5333C382.983 51.0067 382.808 50.4801 382.593 49.9944C382.505 49.8013 382.494 49.6491 382.331 49.5029C382.214 49.4034 382.086 49.2805 381.958 49.1869C381.55 48.9002 381.131 48.7422 380.659 48.5842C380.217 48.432 379.786 48.3326 379.314 48.3443C379.116 48.3443 378.953 48.2799 378.766 48.2565C378.58 48.2331 378.37 48.2565 378.178 48.2565C377.904 48.2565 377.637 48.2565 377.363 48.2565C376.839 48.2565 376.326 48.4028 375.802 48.4203C375.319 48.4379 374.853 48.59 374.364 48.5842C374.008 48.5783 373.659 48.6544 373.304 48.6661C372.919 48.6778 372.523 48.7539 372.145 48.8124C371.766 48.8709 371.341 48.9177 370.945 48.9119C370.724 48.9119 370.537 48.9938 370.316 48.9996C370.135 48.9996 370.013 49.0406 369.844 49.0699C369.646 49.105 369.512 49.0816 369.326 49.1576C369.174 49.2161 369.006 49.2337 368.854 49.2981C368.691 49.3624 368.546 49.4795 368.388 49.5555C368.132 49.6784 367.928 49.8891 367.719 50.0763C367.585 50.1933 367.579 50.2226 367.538 50.3806C367.509 50.4918 367.468 50.5854 367.456 50.7024C367.422 50.9891 367.456 51.2642 367.561 51.5158C367.654 51.7498 367.759 51.9546 367.887 52.1711C367.975 52.3174 368.179 52.6276 368.516 53.0723L368.511 53.084Z" stroke="white" stroke-width="1.13736" stroke-linecap="round" stroke-linejoin="round"/>
<path d="M376.148 59.0449C376.475 59.0449 376.801 59.0274 377.121 59.0449C377.348 59.0566 377.861 59.3375 377.931 59.5774C377.965 59.7061 377.931 59.8934 377.931 60.028C377.931 60.2211 377.89 60.2328 377.785 60.3732C377.756 60.4142 377.744 60.4902 377.709 60.537C377.663 60.6073 377.587 60.6424 377.54 60.7009C377.505 60.7418 377.523 60.8062 377.488 60.8472C377.43 60.9115 377.348 60.9525 377.284 61.011" stroke="white" stroke-width="1.13736" stroke-linecap="round" stroke-linejoin="round"/>
<path d="M382.003 59.6982C382.003 60.0318 381.922 60.4823 382.003 60.8042C382.02 60.8861 382.073 60.9271 382.09 61.0031C382.107 61.0792 382.084 61.1553 382.101 61.2372C382.13 61.3484 382.281 61.5356 382.246 61.6643" stroke="white" stroke-width="1.13736" stroke-linecap="round" stroke-linejoin="round"/>
<path d="M380.058 70.156C380.058 72.2801 379.918 74.4569 380.18 76.5634C380.308 77.5874 380.366 78.6114 380.529 79.6296C380.57 79.8812 380.529 80.1153 380.547 80.3669C380.559 80.4956 380.611 80.5717 380.628 80.6887C380.675 80.952 380.681 81.2036 380.745 81.4553C380.943 82.1984 381.054 82.9591 381.263 83.6613C381.345 83.9304 381.52 83.8427 381.741 83.8544C381.921 83.8661 382.055 83.948 382.236 83.9597C382.76 83.989 383.302 83.9597 383.826 83.9597C384.647 83.9597 385.48 84.0065 386.289 83.8836C387.192 83.7432 388.106 83.7139 389.003 83.5384C389.661 83.4097 390.337 83.2341 390.972 83.0352C391.344 82.9181 391.845 82.8538 392.16 82.6373C392.393 82.4734 392.323 82.4383 392.206 82.2335C392.113 82.0697 392.113 81.9702 392.09 81.7888C392.049 81.4494 391.979 81.0983 391.909 80.7589C391.88 80.6126 391.903 80.4956 391.892 80.3552C391.874 80.1094 391.781 79.9163 391.787 79.6647C391.799 79.2902 391.682 78.945 391.688 78.5705C391.688 78.3072 391.641 78.038 391.589 77.7864C391.537 77.5348 391.484 77.3417 391.484 77.0842C391.484 76.7975 391.391 76.5576 391.385 76.2708C391.385 76.1655 391.379 76.0719 391.362 75.9666C391.327 75.7501 391.321 75.5511 391.292 75.3346C391.257 75.0654 391.164 74.8021 391.111 74.5388C391.077 74.375 391.094 74.2287 391.094 74.059C391.088 73.8132 391.001 73.6026 390.989 73.3568C390.966 73.0408 390.989 72.7073 390.989 72.3854C390.989 72.0987 391.012 71.8061 390.989 71.5253C390.966 71.2093 390.861 70.8933 390.809 70.589C390.727 70.1385 390.686 69.6587 390.488 69.2666" stroke="white" stroke-width="1.13736" stroke-linecap="round" stroke-linejoin="round"/>
<path d="M382.937 62.0557C378.942 63.8521 375.681 69.411 376.816 73.8991C377.585 76.9302 379.437 79.8032 379.752 82.9045C380.014 85.4792 381.633 87.3107 382.39 89.7566C382.704 90.7806 382.332 91.6466 382.442 92.7584C382.541 93.7883 383.013 94.7655 383.636 95.5554" stroke="white" stroke-width="1.13736" stroke-linecap="round" stroke-linejoin="round"/>
<path d="M382.742 62.0533C385.846 62.0533 388.595 61.8484 391.047 63.9608C393.808 66.3424 396.137 69.7129 397.849 72.9136C399.037 75.1372 400.47 76.9687 402.019 78.9465C403.044 80.2455 403.97 81.6148 404.943 82.9431C405.409 83.575 405.927 84.0549 406.131 84.798C406.871 87.5014 406.271 90.3862 405.735 93.0018C405.455 94.3359 405.368 94.6343 404.058 95.1493C402.398 95.8046 400.534 96.4483 398.764 96.7409C395.904 97.2149 393.243 96.3781 390.43 96.3722" stroke="white" stroke-width="1.13736" stroke-linecap="round" stroke-linejoin="round"/>
<path d="M382.937 84.4551C383.286 86.2515 385.715 87.0414 386.222 88.8612C386.653 90.4177 386.064 91.8221 385.354 93.1562C384.294 95.134 382.803 96.8251 381.44 98.6332C380.171 100.324 379.291 101.395 377.27 102.232C376.024 102.747 373.054 104.344 376.176 104.356" stroke="white" stroke-width="1.13736" stroke-linecap="round" stroke-linejoin="round"/>
<path d="M375.84 103.765C375.84 105.246 375.327 105.661 374.768 106.89C374.104 108.365 375.811 108.072 376.836 108.441C378.111 108.903 379.259 109.477 380.493 108.441C381.524 107.581 381.32 106.206 381.908 105.117C382.602 103.83 384.221 102.56 385.246 101.466C386.352 100.284 387.488 99.1662 388.629 98.0252C390.359 96.2931 392.048 93.9467 393.317 91.8167C394.08 90.547 393.521 88.7213 393.236 87.3404C392.968 86.053 392.391 84.1981 391.39 83.373" stroke="white" stroke-width="1.13736" stroke-linecap="round" stroke-linejoin="round"/>
<path d="M380.127 109.112C381.327 109.281 382.445 110.323 383.493 110.873C384.763 111.54 386.032 112.213 387.296 112.909C388.56 113.606 391.821 115.349 393.033 114.495C394.145 113.711 394.978 112.271 395.712 111.165C396.544 109.919 397.575 108.743 398.589 107.655C400.738 105.343 402.363 102.921 403.929 100.217C404.715 98.8598 406.567 96.3846 405.63 94.7988" stroke="white" stroke-width="1.13736" stroke-linecap="round" stroke-linejoin="round"/>
<path d="M379.266 109.43C379.079 111.32 378.136 112.689 377.123 114.175C376.761 114.702 376.249 115.252 376.197 115.913C376.115 116.972 377.018 118.154 377.536 119.003C378.194 120.068 378.928 120.969 379.231 122.168C379.551 123.456 380.372 124.281 381.112 125.352C381.852 126.422 382.673 127.534 383.471 128.605C383.989 129.301 384.402 130.068 384.927 130.764C385.346 131.314 385.858 131.695 386.266 132.245C387 133.228 387.926 133.918 388.566 134.971C389.242 136.083 390.244 138.886 391.665 139.237C391.909 139.296 392.404 139.05 392.678 139.003C393.424 138.869 394.309 138.962 394.14 137.897C394.064 137.406 393.61 136.914 393.394 136.475C393.045 135.767 392.766 135.018 392.434 134.293C391.473 132.192 390.517 130.097 389.51 128.02C388.083 125.077 386.4 122.285 384.903 119.395C383.57 116.814 385.41 115.193 386.575 112.993" stroke="white" stroke-width="1.13736" stroke-linecap="round" stroke-linejoin="round"/>
<path d="M388.396 134.335C389.253 134.335 390.93 134.119 391.151 133.229" stroke="white" stroke-width="1.13736" stroke-linecap="round" stroke-linejoin="round"/>
<path d="M391.384 115.127C391.419 116.087 390.592 116.812 390.516 117.696C390.394 119.106 391.972 120.973 392.66 122.096C394.343 124.864 396.043 127.714 397.633 130.47C398.012 131.131 398.722 131.985 398.775 132.746C398.076 132.711 397.191 133.155 396.503 132.915C396.002 132.746 395.455 132.044 395.042 131.687C393.283 130.177 391.565 128.673 389.969 127.058C389.387 126.467 388.734 125.97 388.239 125.32" stroke="white" stroke-width="1.13736" stroke-linecap="round" stroke-linejoin="round"/>
<path d="M394.294 130.704C395.179 130.704 396.641 130.675 397.049 130.072" stroke="white" stroke-width="1.13736" stroke-linecap="round" stroke-linejoin="round"/>
<path d="M394.138 131.329H391.779" stroke="white" stroke-width="1.13736" stroke-linecap="round" stroke-linejoin="round"/>
<path d="M386.743 133.705C386.324 133.793 385.602 134.378 385.31 134.712C384.804 135.291 385.037 135.455 385.759 135.724C386.702 136.075 387.687 135.999 388.712 135.999" stroke="white" stroke-width="1.13736" stroke-linecap="round" stroke-linejoin="round"/>
<path d="M393.982 136.476C395.66 136.476 403.417 136.956 400.948 133.351C400.511 132.707 399.911 132.625 399.41 132.204" stroke="white" stroke-width="1.13736" stroke-linecap="round" stroke-linejoin="round"/>
<path d="M390.281 138.763C388.307 139.588 386.338 140.752 384.457 141.689C383.793 142.016 383.112 142.397 382.495 142.736C381.266 143.415 382.541 143.871 383.491 144.14C386.164 144.895 389.437 144.328 392.098 143.906C393.56 143.678 395.424 143.707 396.268 142.291C397.113 140.875 396.309 138.435 394.696 138.131" stroke="white" stroke-width="1.13736" stroke-linecap="round" stroke-linejoin="round"/>
<path d="M172.718 41.5717C170.447 41.2675 170.167 43.8421 172.048 44.5911" stroke="white" stroke-width="1.13736" stroke-linecap="round" stroke-linejoin="round"/>
<path d="M173.322 38.4209C173.765 39.7258 174.219 40.8961 174.295 42.277C174.376 43.7692 174.167 45.1969 174.079 46.6598C174.021 47.6019 174.341 49.3398 173.619 50.0127C172.984 50.6096 171.616 50.4457 170.818 50.5686C169.537 50.7675 168.558 51.0016 167.388 51.7213" stroke="white" stroke-width="1.13736" stroke-linecap="round" stroke-linejoin="round"/>
<path d="M173.223 38.0327C171.784 38.4014 169.373 40.4904 168.633 41.7894C168.191 42.5735 168.243 43.6034 167.626 44.2938C166.181 45.9088 162.542 45.8913 161.639 43.9896C160.69 41.9825 160.055 39.7648 160.707 37.4768C161.575 34.4516 165.459 31.3152 168.569 32.8659C169.338 33.2462 175.441 35.9028 173.223 38.0269V38.0327Z" stroke="white" stroke-width="1.13736" stroke-linecap="round" stroke-linejoin="round"/>
<path d="M161.831 44.9756C161.511 45.6134 160.94 46.298 160.369 46.7369" stroke="white" stroke-width="1.13736" stroke-linecap="round" stroke-linejoin="round"/>
<path d="M167.095 51.7242C165.045 51.7242 163.892 51.4551 162.465 49.8108C161.97 49.2432 161.638 48.7809 161.37 48.1022C161.178 47.6165 161.283 46.9728 160.572 47.0255" stroke="white" stroke-width="1.13736" stroke-linecap="round" stroke-linejoin="round"/>
<path d="M166.411 52.2158C166.411 53.1169 166.195 54.258 166.655 55.0011C166.999 55.5512 167.674 55.8262 168.14 56.2475C169.567 57.5465 169.13 59.8696 168.723 61.6075C168.379 63.0645 168.012 64.6093 167.558 66.0078C167.051 67.5526 165.258 67.2015 163.784 67.0903C162.008 66.9557 160.406 66.47 158.636 66.3881C158.385 65.0598 158.234 63.4624 157.844 62.1985" stroke="white" stroke-width="1.13736" stroke-linecap="round" stroke-linejoin="round"/>
<path d="M160.277 46.8325C159.368 46.8968 158.559 46.3643 157.703 46.1478C156.561 45.8553 155.321 45.7382 154.144 45.6797C152.846 45.6153 151.174 45.4281 149.957 45.9489C147.191 47.1426 144.925 50.7588 141.78 51.0338" stroke="white" stroke-width="1.13736" stroke-linecap="round" stroke-linejoin="round"/>
<path d="M141.491 51.1445C141.526 52.5196 143.233 54.6262 144.217 55.4512" stroke="white" stroke-width="1.13736" stroke-linecap="round" stroke-linejoin="round"/>
<path d="M149.179 50.166C147.577 50.5464 146.273 53.7822 145.539 55.0462C144.17 57.4043 142.889 59.821 141.584 62.2142C140.559 64.0926 139.371 65.848 138.125 67.58C137.251 68.7972 137.479 69.1482 138.195 70.5116C138.585 71.2606 139.424 71.8692 139.773 72.5655C140.006 73.0395 139.93 73.6539 139.925 74.2273C139.925 75.2045 139.954 75.5907 140.821 76.1642C141.887 76.8722 143.099 77.3988 144.199 78.0835C146.057 79.2362 147.857 80.307 150.076 80.5118C151.275 80.623 153.197 80.9156 154.385 80.5938C155.451 80.307 156.098 78.9729 156.773 78.1947C157.344 77.5334 160.285 74.8359 160.331 74.1162" stroke="white" stroke-width="1.13736" stroke-linecap="round" stroke-linejoin="round"/>
<path d="M159.016 66.5967C159.016 67.8723 158.853 69.2591 159.109 70.5113C159.429 72.1088 160.21 73.6243 160.728 75.1633C161.014 76.0117 161.182 77.0591 161.701 77.8023C162.091 78.364 162.452 78.4284 163.18 78.7268C166.22 79.979 169.214 81.1786 172.458 81.8398C174.839 82.3255 177.245 82.5478 179.615 83.1505C180.832 83.4607 182.09 83.6421 183.261 83.9229" stroke="white" stroke-width="1.13736" stroke-linecap="round" stroke-linejoin="round"/>
<path d="M166.309 67.5752C166.158 69.5647 167.247 72.5022 168.93 73.6373C171.399 75.305 174.002 77.1131 176.728 78.3302C179.453 79.5473 182.191 80.0974 185.103 80.0915C186.506 80.0915 187.595 80.5948 188.941 80.782C190.472 80.9927 192.062 80.782 193.547 81.1858C193.769 82.6428 193.198 82.8534 192.085 82.9471C190.862 83.0524 189.791 83.462 188.562 83.5849C187.578 83.6785 184.2 84.1115 183.239 83.9126" stroke="white" stroke-width="1.13736" stroke-linecap="round" stroke-linejoin="round"/>
<path d="M184.426 79.9966C185.695 79.9966 187.087 80.0961 188.299 79.7801C188.939 79.6104 190.908 78.9434 190.075 80.5818" stroke="white" stroke-width="1.13736" stroke-linecap="round" stroke-linejoin="round"/>
<path d="M141.781 52.1211C140.901 52.0509 139.969 52.7473 139.253 53.1978C137.739 54.1399 136.289 55.1873 134.775 56.1353C132.701 57.4284 130.546 58.7743 128.252 59.6345C126.796 60.1786 125.386 60.4595 124.064 61.3197C121.432 63.04 118.747 64.8364 116.156 66.5041C115.148 67.1536 114.117 67.7973 113.162 68.4644" stroke="white" stroke-width="1.13736" stroke-linecap="round" stroke-linejoin="round"/>
<path d="M113.163 68.4502C113.093 68.538 113.012 68.6784 112.977 68.8188C114.584 68.7662 115.609 69.5152 117.152 68.5263C118.597 67.5959 119.924 66.4548 121.532 65.8287C123.914 64.9042 126.564 64.3015 129.027 63.6578C131.071 63.1253 132.987 62.1189 135.037 61.6273C137.087 61.1358 139.073 61.1709 141.007 60.5507C141.677 60.3342 142.306 59.948 142.952 59.749" stroke="white" stroke-width="1.13736" stroke-linecap="round" stroke-linejoin="round"/>
<path d="M120.745 66.4031C120.745 67.55 120.757 68.8373 122.015 67.6963C122.702 67.0702 122.976 65.8531 123.861 65.5254" stroke="white" stroke-width="1.13736" stroke-linecap="round" stroke-linejoin="round"/>
<path d="M152.436 82.8667C152.436 84.8562 152.197 87.0037 152.599 88.9581C153.217 91.9657 154.533 94.7803 155.162 97.788C155.692 100.31 156.961 103.013 156.763 105.611C154.946 105.67 153.17 106.191 151.417 106.63C149.28 107.168 146.973 107.238 144.784 107.338C143.543 107.396 141.831 107.706 140.62 107.314C139.338 106.899 139.356 105.026 139.129 103.844C138.68 101.498 138.354 99.2625 137.428 97.0448C136.502 94.8271 135.32 92.5743 134.504 90.263C133.252 86.717 133.008 82.6502 133.485 78.9345C133.73 77.0503 134.009 75.5816 135.017 73.9607C135.582 73.0537 135.966 71.4387 136.933 70.8828" stroke="white" stroke-width="1.13736" stroke-linecap="round" stroke-linejoin="round"/>
<path d="M156.437 79.6162C156.455 83.9054 159.244 87.504 160.485 91.4596C161.137 93.5428 159.104 95.029 157.544 96.1291C156.798 96.6558 156.064 97.4399 155.243 97.75" stroke="white" stroke-width="1.13736" stroke-linecap="round" stroke-linejoin="round"/>
<path d="M160.177 94.3291C160.177 95.9851 161.016 98.2906 160.521 99.888C160.136 101.14 157.83 102.012 156.683 102.457" stroke="white" stroke-width="1.13736" stroke-linecap="round" stroke-linejoin="round"/>
<path d="M137.018 98.3465C132.773 98.3465 129.249 96.2459 125.184 95.5261C124.083 95.333 123.018 95.2394 121.905 95.1867C121.288 95.1575 120.397 95.1224 119.995 94.6074C121.428 93.9638 122.272 92.2785 123.821 91.828C126.081 91.1785 129.104 91.6407 131.48 91.7636C132.499 91.8163 133.507 91.9392 134.549 91.9392" stroke="white" stroke-width="1.13736" stroke-linecap="round" stroke-linejoin="round"/>
<path d="M119.055 95.1867C116.842 95.1926 114.804 96.0469 112.888 97.1001C112.334 97.4044 111.694 97.9954 111.152 97.4103C110.675 96.8836 111.036 96.1639 111.304 95.6841C113.08 92.5126 117.122 90.1427 120.121 88.3463C121.711 87.3925 122.823 86.5324 124.739 86.6494C125.421 88.3814 125.345 89.7097 124.5 91.3423" stroke="white" stroke-width="1.13736" stroke-linecap="round" stroke-linejoin="round"/>
<path d="M152.995 107.428C152.995 111.29 153.461 115.532 152.867 119.359C152.302 122.975 150.753 126.346 150.205 129.962C149.629 133.771 150.135 138.107 148.79 141.636C147.544 141.905 145.505 142.519 144.603 141.53C143.181 139.974 143.776 135.257 143.776 133.239C143.776 126.82 143.991 120.272 144.3 113.888C144.393 111.98 144.3 110.037 144.3 108.13" stroke="white" stroke-width="1.13736" stroke-linecap="round" stroke-linejoin="round"/>
<path d="M149.231 139.973C151.636 139.827 153.937 141.021 156.109 141.904C157.157 142.331 158.84 142.636 159.772 143.309C161.88 144.83 156.82 145.362 155.841 145.45C153.308 145.673 150.821 145.474 148.293 145.362C147.129 145.31 145.964 145.421 144.799 145.362C144.141 145.327 142.586 145.485 142.033 145.105C140.46 144.017 143.005 141.413 143.524 140.33" stroke="white" stroke-width="1.13736" stroke-linecap="round" stroke-linejoin="round"/>
<path d="M134.948 92.2715C135.141 93.9099 133.824 96.1744 132.747 97.2511" stroke="white" stroke-width="1.13736" stroke-linecap="round" stroke-linejoin="round"/>
<path d="M143.763 128.964C145.026 128.402 148.247 128.355 149.82 128.408" stroke="white" stroke-width="1.13736" stroke-linecap="round" stroke-linejoin="round"/>
<path d="M190.327 109.496C186.192 108.946 183.665 113.762 183.169 117.103C182.459 121.907 184.066 126.296 188.469 128.426C192.447 130.351 196.815 131.088 200.286 127.665C203.035 124.956 204.188 120.082 202.575 116.46C200.827 112.533 196.856 109.906 190.321 109.496H190.327Z" stroke="white" stroke-width="1.13736" stroke-linecap="round" stroke-linejoin="round"/>
<path d="M190.821 116.207C192.952 116.207 194.892 116.277 196.954 116.74C196.622 117.547 197.478 118.752 197.792 119.49C198.229 120.52 198.648 121.626 199.172 122.585C198.188 122.743 197.338 123.855 196.604 124.458C195.87 125.06 195.119 125.792 194.309 126.289C193.529 125.242 192.213 124.668 191.409 123.521C190.605 122.375 189.889 121.918 188.684 121.321C189.068 120.438 189.761 119.601 190.081 118.624C190.274 118.039 190.215 116.821 190.821 116.207Z" stroke="white" stroke-width="1.13736" stroke-linecap="round" stroke-linejoin="round"/>
<path d="M190.599 116.43C189.982 115.014 188.998 114.265 187.938 113.165C187.355 112.563 187.111 111.825 186.68 111.229" stroke="white" stroke-width="1.13736" stroke-linecap="round" stroke-linejoin="round"/>
<path d="M197.109 116.653C197.744 115.5 198.961 114.365 199.998 113.528" stroke="white" stroke-width="1.13736" stroke-linecap="round" stroke-linejoin="round"/>
<path d="M199.399 122.83C200.25 122.52 201.607 123.404 202.288 123.796" stroke="white" stroke-width="1.13736" stroke-linecap="round" stroke-linejoin="round"/>
<path d="M194.145 126.319C194.145 127.455 194.105 128.584 194.291 129.666" stroke="white" stroke-width="1.13736" stroke-linecap="round" stroke-linejoin="round"/>
<path d="M188.742 121.329C187.572 121.329 186.954 121.516 185.894 122.002C185.26 122.289 184.456 122.681 183.786 122.745" stroke="white" stroke-width="1.13736" stroke-linecap="round" stroke-linejoin="round"/>
</g>
<defs>
<clipPath id="clip0_1_7382">
<rect width="407.072" height="170.951" fill="white"/>
</clipPath>
</defs>
</svg>
