<svg width="292" height="37" viewBox="0 0 292 37" fill="none" xmlns="http://www.w3.org/2000/svg">
<path d="M36.2237 33.624C92.6008 31.9088 148.021 33.115 204.339 34.82C228.125 35.5413 252.28 34.5461 276.11 34.4308C282.121 34.3975 288.306 35.4725 290.727 31.2162C284.118 27.4199 268.874 29.786 260.336 29.6049C253.76 29.4683 249.168 27.579 244.957 24.5528C240.88 21.6249 236.739 19.1529 230.375 18.4683C228.237 18.2347 225.334 18.7102 223.311 18.2937C221.768 17.9731 221.529 16.8321 220.249 16.2365C218.821 15.5674 217.706 16.0885 216.222 15.8503C214.938 15.644 215.884 16.01 215.026 15.279C213.752 14.2031 213.144 12.5927 210.364 12.9183C209.454 13.0239 207.79 14.2609 207.002 13.9435C206.827 13.8701 206.594 12.4393 206.493 12.2412C204.461 8.23107 200.97 5.05903 194.847 3.25491C191.445 2.2517 188.093 1.38065 184.292 1.3076C180.143 1.2204 176.061 1.17413 172.051 2.02992C168.785 2.72323 165.189 4.79335 165.429 7.1847C165.324 6.44848 164.333 5.49483 163.476 5.02878C145.39 -4.83706 136.034 19.4627 113.669 16.7922C109.865 16.3299 109.932 18.8136 110.275 20.517C108.929 13.8606 90.778 9.02637 90.8385 17.7617C96.3199 16.5397 72.1234 -2.80127 64.4405 12.9266C55.8463 7.05735 32.3667 12.3371 43.6525 19.4629C33.6518 16.162 29.2075 23.6533 35.9829 27.5479C29.7757 27.9883 21.2095 26.1597 17.5481 30.7309C17.6093 31.1942 18.0164 31.3901 18.7613 31.3353C16.0159 30.667 1.6183 29.7482 1.26233 34.545C12.0721 37.509 30.633 32.2053 36.2321 33.6405L36.2237 33.624Z" stroke="white" stroke-width="2.52487" stroke-linecap="round" stroke-linejoin="round"/>
</svg>
