<svg width="77" height="132" viewBox="0 0 77 132" fill="none" xmlns="http://www.w3.org/2000/svg">
<path d="M40.8953 80.1092C34.8677 80.4015 22.8781 82.5181 17.5632 86.6176C15.4885 88.2355 11.3344 91.1 12.2225 94.2687C12.996 97.1209 15.5777 97.6697 17.7125 97.8003C23.7854 98.1435 29.8935 98.3801 36.0024 98.6698C47.4098 99.154 59.035 99.4233 69.8924 94.5079C71.2819 93.9063 72.6693 93.1457 73.6417 91.5955C74.614 90.0453 74.9478 87.4964 74.0434 85.8651C73.2904 84.5499 67.9821 82.5767 66.8026 82.3803C54.4028 79.8718 53.4903 79.497 40.8953 80.1092Z" stroke="white" stroke-width="2" stroke-miterlimit="10" stroke-linecap="round"/>
<path d="M20.2658 93.8263C26.4058 89.8619 52.8889 85.0356 69.1653 90.2655" stroke="white" stroke-width="2" stroke-linecap="round"/>
<path d="M74.2622 87.0188C75.3105 94.9129 75.6726 103.034 73.5253 110.68C71.3781 118.327 66.5406 125.538 59.367 128.934" stroke="white" stroke-width="2" stroke-miterlimit="10" stroke-linecap="round"/>
<path d="M14.7626 96.7715C10.5245 97.2269 5.85396 97.9059 3.21352 101.206C0.716218 104.359 0.96036 109.071 2.96575 112.563C4.97114 116.055 8.3775 118.513 11.9575 120.388C16.7435 122.936 21.9537 124.644 27.3331 125.443" stroke="white" stroke-width="2" stroke-miterlimit="10" stroke-linecap="round"/>
<path d="M19.0509 104.72C16.7579 104.839 17.3752 104.919 15.2053 105.367C13.0353 105.815 11.0289 106.658 10.0955 107.862C8.92944 109.422 9.90372 111.284 11.9374 112.493C13.9712 113.701 16.868 114.368 19.8003 114.727C22.7327 115.085 20.303 115.249 23.2739 115.541" stroke="white" stroke-width="2" stroke-miterlimit="10" stroke-linecap="round"/>
<path d="M26.9365 125.224C36.8858 131.403 49.8155 132.573 60.7127 128.22" stroke="white" stroke-width="2" stroke-miterlimit="10" stroke-linecap="round"/>
<path d="M12.859 89.762C12.0197 92.1308 13.4927 95.2483 14.1059 97.7066" stroke="white" stroke-width="2" stroke-miterlimit="10" stroke-linecap="round"/>
<path d="M17.8848 99.8828L24.3237 119.198" stroke="white" stroke-width="2" stroke-miterlimit="10" stroke-linecap="round"/>
<path d="M41.4717 10.8434L46.045 11.0364C48.814 9.22205 48.6801 4.61681 46.1128 2.51074C43.5454 0.404677 39.5597 0.747961 36.9019 2.74224C34.244 4.73652 32.8 7.98429 32.2994 11.2558C31.7307 14.8546 32.1794 18.585 33.5658 21.9039C35.3652 26.2693 38.6409 29.8169 40.981 33.9212C44.8457 40.8346 45.7929 49.3105 43.5364 56.9222C41.8002 62.7494 38.2105 68.3111 38.6543 74.3995" stroke="white" stroke-width="2.16152" stroke-miterlimit="10" stroke-linecap="round"/>
<path d="M61.7909 18.6991L67.3267 12.1684C66.5786 10.4734 64.6075 9.55646 62.7592 9.6899C60.9109 9.82335 59.2561 10.8611 57.9683 12.2204C55.6426 14.6456 54.4186 18.0718 54.717 21.4052C55.1874 26.7677 59.1257 31.0321 61.5474 35.8244C64.9378 42.5266 65.2641 50.6842 62.4906 57.6135C60.1378 63.4489 55.6423 69.0952 56.9213 75.245" stroke="white" stroke-width="2.16152" stroke-miterlimit="10" stroke-linecap="round"/>
<path d="M26.257 48.0819L26.5826 39.8429C25.3103 39.6422 24.0384 39.4778 22.8082 39.7118C19.4429 40.3371 17.2783 43.9572 17.2879 47.4032C17.2975 50.8493 18.9722 54.0192 20.8963 56.8594C22.8205 59.6995 25.0328 62.3907 26.3085 65.566C27.5842 68.7412 27.853 72.5829 25.8954 75.4022" stroke="white" stroke-width="2.16152" stroke-miterlimit="10" stroke-linecap="round"/>
</svg>
